<?xml version="1.0" encoding="UTF-8"?>
<svg id="Layer_1" xmlns="http://www.w3.org/2000/svg" version="1.1" viewBox="0 0 1920 755.29">
  <!-- Generator: Adobe Illustrator 29.4.0, SVG Export Plug-In . SVG Version: 2.1.0 Build 152)  -->
  <defs>
    <style>
      .st0 {
        fill: #0476bd;
      }

      .st1 {
        fill: #211e1f;
      }

      .st2 {
        fill: #e23b40;
      }

      .st3 {
        fill: #abc337;
      }
    </style>
  </defs>
  <g>
    <g>
      <path class="st2" d="M625.19,183.68c-8.43-12.62-22.78-20.92-39.08-20.92h-107.95l59.59,91.77c8.43,12.6,22.77,20.92,39.08,20.92h107.99l-59.63-91.77Z"/>
      <path class="st3" d="M537.81,324.53c8.41-12.59,22.77-20.91,39.08-20.91h107.93l-59.59,91.76c-8.41,12.62-22.78,20.93-39.08,20.93h-107.99l59.65-91.78Z"/>
      <path class="st0" d="M491.09,326.98c5.93-8.99,13.33-16.89,21.87-23.36h-114.63c-16.3,0-30.67,8.31-39.07,20.91l-110.94,170.67h108.02c16.3,0,30.64-8.31,39.05-20.94l95.7-147.28Z"/>
    </g>
    <g>
      <path class="st1" d="M790.35,354.78h14.39c3.21,0,19.15.76,19.15-13.75s-12.55-14.34-22.54-14.34h-11.01v28.09ZM763.72,303.62h44.33c25.66,0,43.58,8.23,43.58,37.07,0,26.59-15.98,38.24-42.61,38.24h-18.67v37.38h-26.63v-112.69Z"/>
      <polygon class="st1" points="892.42 328.45 892.42 347.28 938.22 347.28 938.22 372.06 892.42 372.06 892.42 391.48 939.85 391.48 939.85 416.31 865.84 416.31 865.84 303.62 939.85 303.62 939.85 328.45 892.42 328.45"/>
      <path class="st1" d="M988.7,353.84h12.5c8.73,0,18.5-1.79,18.5-14.03s-9.77-14.04-18.5-14.04h-12.5v28.07ZM1058.84,416.31h-33l-32.29-43.19-4.59-.16h-.27v43.35h-26.59v-112.69h49.69c20.25,0,35.62,10.62,35.62,34.66,0,17.95-10.94,29.38-25.46,32.23l36.88,45.8Z"/>
      <polygon class="st1" points="1115.3 416.31 1088.66 416.31 1088.66 328.45 1057.82 328.45 1057.82 303.62 1146.13 303.62 1146.13 328.45 1115.3 328.45 1115.3 416.31"/>
      <path class="st1" d="M1191.7,338.43h-.25l-11.01,35.91h22.15l-10.89-35.91ZM1173.1,396.72l-7.07,19.59h-28.28l39.45-112.69h29.05l38.57,112.69h-28.39l-6.65-19.59h-36.69Z"/>
      <polygon class="st1" points="1270.51 303.62 1296.74 303.62 1317.51 363.86 1339.53 303.62 1366.04 303.62 1381.5 416.31 1354.89 416.31 1347.4 351.45 1347.13 351.45 1322.56 416.31 1311.94 416.31 1288.44 351.45 1288.17 351.45 1279.63 416.31 1253.13 416.31 1270.51 303.62"/>
      <rect class="st1" x="1398.75" y="303.62" width="26.62" height="112.69"/>
      <polygon class="st1" points="1448.8 303.62 1475.41 303.62 1524.15 372.51 1524.45 372.51 1524.45 303.62 1551.07 303.62 1551.07 416.31 1524.45 416.31 1475.67 347.28 1475.41 347.28 1475.41 416.31 1448.8 416.31 1448.8 303.62"/>
      <path class="st1" d="M1618.6,338.43h-.28l-10.99,35.91h22.13l-10.85-35.91ZM1599.98,396.72l-7.07,19.59h-28.25l39.41-112.69h29.09l38.53,112.69h-28.37l-6.66-19.59h-36.66Z"/>
    </g>
  </g>
  <g>
    <path class="st2" d="M813.93,538.66h38.27v3.06c0,6.96-.82,13.12-2.46,18.48-1.6,4.96-4.3,9.6-8.1,13.92-8.6,9.68-19.54,14.52-32.81,14.52s-24.06-4.68-33.29-14.04c-9.24-9.4-13.86-20.68-13.86-33.83s4.7-24.84,14.1-34.19c9.4-9.4,20.83-14.1,34.31-14.1,7.24,0,14,1.48,20.28,4.44,6,2.96,11.9,7.76,17.7,14.4l-9.96,9.54c-7.6-10.12-16.86-15.18-27.77-15.18-9.8,0-18.02,3.38-24.66,10.14-6.64,6.64-9.96,14.96-9.96,24.96s3.7,18.82,11.1,25.49c6.92,6.2,14.42,9.3,22.5,9.3,6.88,0,13.06-2.32,18.54-6.96,5.48-4.68,8.54-10.28,9.18-16.8h-23.1v-13.14Z"/>
    <path class="st2" d="M919.99,564.39h-39.65l-10.32,22.5h-15.06l45.83-98.44,44.21,98.44h-15.3l-9.72-22.5ZM914.29,551.26l-13.74-31.49-14.4,31.49h28.13Z"/>
    <path class="st2" d="M1008.96,508.07l-11.34,6.72c-2.12-3.68-4.14-6.08-6.06-7.2-2-1.28-4.58-1.92-7.74-1.92-3.88,0-7.1,1.1-9.66,3.3-2.56,2.16-3.84,4.88-3.84,8.16,0,4.52,3.36,8.16,10.08,10.92l9.24,3.78c7.52,3.04,13.02,6.75,16.5,11.13,3.48,4.38,5.22,9.75,5.22,16.11,0,8.52-2.84,15.56-8.52,21.12-5.72,5.6-12.82,8.4-21.3,8.4-8.04,0-14.68-2.38-19.92-7.14-5.16-4.76-8.38-11.46-9.66-20.1l14.16-3.12c.64,5.44,1.76,9.2,3.36,11.28,2.88,4,7.08,6,12.6,6,4.36,0,7.98-1.46,10.86-4.38,2.88-2.92,4.32-6.62,4.32-11.1,0-1.8-.25-3.45-.75-4.95-.5-1.5-1.28-2.88-2.34-4.14-1.06-1.26-2.43-2.44-4.11-3.54-1.68-1.1-3.68-2.15-6-3.15l-8.94-3.72c-12.68-5.36-19.02-13.2-19.02-23.52,0-6.96,2.66-12.78,7.98-17.46,5.32-4.72,11.94-7.08,19.86-7.08,10.68,0,19.02,5.2,25.02,15.6Z"/>
    <path class="st2" d="M1066.13,586.89v-98.92l67.55,70.67v-64.37h13.98v98.26l-67.55-70.49v64.85h-13.98Z"/>
    <path class="st2" d="M1220.95,507.41h-37.13v22.26h36.05v13.14h-36.05v30.95h37.13v13.14h-51.11v-92.62h51.11v13.14Z"/>
    <path class="st2" d="M1286.94,538.66h38.27v3.06c0,6.96-.82,13.12-2.46,18.48-1.6,4.96-4.3,9.6-8.1,13.92-8.6,9.68-19.54,14.52-32.81,14.52s-24.06-4.68-33.29-14.04c-9.24-9.4-13.86-20.68-13.86-33.83s4.7-24.84,14.1-34.19c9.4-9.4,20.83-14.1,34.31-14.1,7.24,0,14,1.48,20.28,4.44,6,2.96,11.9,7.76,17.7,14.4l-9.96,9.54c-7.6-10.12-16.86-15.18-27.77-15.18-9.8,0-18.02,3.38-24.66,10.14-6.64,6.64-9.96,14.96-9.96,24.96s3.7,18.82,11.1,25.49c6.92,6.2,14.42,9.3,22.5,9.3,6.88,0,13.06-2.32,18.54-6.96,5.48-4.68,8.54-10.28,9.18-16.8h-23.1v-13.14Z"/>
    <path class="st2" d="M1393,564.39h-39.65l-10.32,22.5h-15.06l45.83-98.44,44.21,98.44h-15.3l-9.72-22.5ZM1387.3,551.26l-13.74-31.49-14.4,31.49h28.13Z"/>
    <path class="st2" d="M1460.97,547.42l28.67,39.47h-17.1l-26.45-37.91h-2.52v37.91h-13.98v-92.62h16.38c12.24,0,21.07,2.3,26.51,6.9,6,5.12,9,11.88,9,20.28,0,6.56-1.88,12.2-5.64,16.92-3.76,4.72-8.72,7.74-14.88,9.06ZM1443.57,536.8h4.44c13.24,0,19.86-5.06,19.86-15.18,0-9.48-6.44-14.22-19.32-14.22h-4.98v29.39Z"/>
    <path class="st2" d="M1557.97,564.39h-39.65l-10.32,22.5h-15.06l45.83-98.44,44.21,98.44h-15.3l-9.72-22.5ZM1552.27,551.26l-13.74-31.49-14.4,31.49h28.13Z"/>
  </g>
</svg>